<?xml version="1.0" encoding="UTF-8" ?>
<!DOCTYPE svg PUBLIC "-//W3C//DTD SVG 1.1//EN" "http://www.w3.org/Graphics/SVG/1.1/DTD/svg11.dtd">
<svg viewBox="0 0 1953 603" version="1.1" xmlns="http://www.w3.org/2000/svg">
<g id="#0280cfff">
<path fill="#0280cf" opacity="1.00" d=" M 121.16 10.38 C 154.94 -1.51 192.25 -3.01 226.89 5.98 C 256.44 13.61 283.94 28.92 306.06 49.95 C 326.37 69.16 342.14 93.14 351.74 119.41 C 330.16 112.23 306.75 112.27 284.56 116.39 C 260.06 120.99 236.75 130.60 215.01 142.65 C 205.07 122.75 192.18 104.27 176.67 88.31 C 158.96 70.15 136.55 55.35 111.13 51.23 C 87.65 47.20 63.49 53.24 42.77 64.40 C 63.52 39.89 90.84 20.98 121.16 10.38 Z" />
<path fill="#0280cf" opacity="1.00" d=" M 9.42 123.21 C 39.23 108.94 73.32 102.28 106.15 107.74 C 136.99 112.66 165.16 128.94 187.19 150.74 C 159.75 143.36 131.53 138.21 103.05 137.92 C 73.27 137.61 42.62 143.21 16.97 158.99 C 11.01 162.63 5.39 166.80 0.11 171.37 C 1.04 155.00 4.19 138.76 9.42 123.21 Z" />
<path fill="#0280cf" opacity="1.00" d=" M 1736.47 137.75 C 1744.55 135.53 1753.65 136.66 1760.71 141.31 C 1766.96 145.40 1771.92 151.72 1773.65 159.07 C 1775.26 166.07 1774.58 173.73 1771.13 180.09 C 1766.35 188.84 1757.13 195.23 1747.08 195.82 C 1736.11 196.88 1724.84 191.25 1719.16 181.80 C 1714.73 174.79 1713.79 165.88 1715.98 157.95 C 1718.71 148.27 1726.77 140.38 1736.47 137.75 Z" />
<path fill="#0280cf" opacity="1.00" d=" M 235.03 164.88 C 259.82 159.11 286.10 158.50 310.77 165.26 C 329.58 170.37 347.25 179.52 362.43 191.71 C 361.64 205.67 359.66 219.54 356.91 233.24 C 336.42 210.15 309.49 193.79 281.42 181.52 C 266.35 174.95 250.80 169.51 235.03 164.88 Z" />
<path fill="#0280cf" opacity="1.00" d=" M 8.65 247.05 C 58.65 209.52 119.25 185.83 181.72 181.29 C 168.33 192.99 158.12 207.79 148.88 222.85 C 132.75 249.74 119.96 278.47 108.33 307.55 C 94.62 342.12 82.76 377.41 72.10 413.05 C 55.78 379.77 40.69 345.84 27.99 311.01 C 20.47 290.04 13.47 268.81 8.65 247.05 Z" />
<path fill="#0280cf" opacity="1.00" d=" M 186.89 260.13 C 197.09 236.89 208.52 214.13 222.01 192.61 C 268.63 225.53 305.69 271.42 329.54 323.18 C 312.97 366.47 292.93 408.36 271.50 449.43 C 243.86 501.91 213.94 553.22 181.30 602.75 C 164.13 577.22 147.99 551.00 132.43 524.47 C 131.74 433.86 150.80 343.21 186.89 260.13 Z" />
<path fill="#0280cf" opacity="1.00" d=" M 1854.08 215.92 C 1873.56 211.95 1894.30 213.03 1912.94 220.16 C 1928.98 225.84 1942.26 238.42 1948.70 254.18 C 1935.42 259.59 1922.14 265.00 1908.86 270.39 C 1906.06 264.76 1901.85 259.72 1896.31 256.63 C 1885.83 250.77 1872.74 249.09 1861.43 253.48 C 1857.49 255.09 1853.39 257.40 1851.51 261.41 C 1849.58 265.48 1850.93 270.68 1854.52 273.39 C 1858.13 276.14 1862.48 277.74 1866.73 279.25 C 1885.59 285.37 1905.98 286.91 1923.73 296.25 C 1933.73 301.39 1942.45 309.40 1947.43 319.58 C 1950.80 326.22 1951.99 333.69 1952.64 341.03 C 1951.90 349.75 1949.71 358.50 1944.94 365.93 C 1935.15 381.78 1917.81 391.62 1899.92 395.50 C 1884.82 398.61 1869.01 398.42 1853.99 395.01 C 1838.36 391.20 1823.53 383.23 1812.83 371.08 C 1806.92 364.30 1802.07 356.56 1798.78 348.19 C 1812.52 342.29 1826.28 336.41 1840.05 330.54 C 1843.71 338.68 1849.19 346.30 1856.94 350.98 C 1864.35 355.66 1873.30 357.52 1881.99 356.90 C 1889.71 356.49 1898.07 354.48 1903.39 348.45 C 1906.91 344.55 1906.68 338.34 1903.78 334.15 C 1901.31 330.54 1897.28 328.45 1893.35 326.82 C 1874.36 319.38 1853.07 319.51 1834.74 310.14 C 1822.24 303.93 1811.17 293.41 1807.12 279.76 C 1803.65 266.60 1805.58 251.76 1813.53 240.54 C 1822.79 227.01 1838.41 219.30 1854.08 215.92 Z" />
<path fill="#0280cf" opacity="1.00" d=" M 1721.56 219.35 C 1736.97 219.31 1752.37 219.34 1767.79 219.33 C 1767.80 276.89 1767.79 334.45 1767.79 392.01 C 1752.38 392.03 1736.97 392.02 1721.57 392.01 C 1721.55 334.46 1721.57 276.90 1721.56 219.35 Z" />
</g>
<g id="#ffffffff">
<path fill="#ffffff" opacity="1.00" d=" M 948.09 139.33 C 963.49 139.35 978.89 139.31 994.30 139.35 C 994.29 161.91 994.30 184.48 994.29 207.04 C 994.70 218.15 992.47 229.11 991.48 240.13 C 992.16 240.11 993.52 240.07 994.20 240.05 C 1001.92 227.66 1014.94 218.85 1029.10 215.58 C 1047.27 211.51 1066.94 213.80 1083.34 222.80 C 1105.59 234.45 1121.38 256.52 1127.20 280.75 C 1133.94 309.17 1129.10 340.87 1111.34 364.46 C 1102.28 376.57 1089.97 386.25 1075.97 392.01 C 1062.02 397.86 1046.36 399.01 1031.55 396.28 C 1016.49 393.43 1002.30 384.44 994.29 371.24 C 993.34 371.23 992.40 371.21 991.48 371.20 C 991.47 378.14 991.48 385.08 991.48 392.02 C 977.01 392.02 962.55 392.02 948.09 392.02 C 948.08 307.79 948.07 223.56 948.09 139.33 M 1026.48 257.68 C 1014.12 260.57 1003.33 269.11 997.51 280.37 C 992.38 289.61 990.84 300.45 991.68 310.88 C 992.62 324.13 998.97 337.10 1009.44 345.39 C 1020.55 354.22 1035.94 357.14 1049.59 353.39 C 1061.79 350.04 1072.40 341.38 1078.09 330.07 C 1083.54 319.92 1084.83 307.95 1083.18 296.66 C 1081.00 282.50 1072.47 269.19 1059.83 262.20 C 1049.84 256.44 1037.64 254.93 1026.48 257.68 Z" />
<path fill="#ffffff" opacity="1.00" d=" M 771.38 237.25 C 785.22 224.49 803.13 215.96 821.94 214.18 C 841.43 212.33 861.89 215.27 878.89 225.41 C 894.15 234.19 905.61 248.76 911.75 265.15 C 917.84 281.39 919.78 299.15 917.79 316.36 C 874.43 316.35 831.07 316.34 787.70 316.36 C 789.05 327.86 794.53 338.97 803.60 346.31 C 815.24 356.01 831.55 358.34 846.11 355.56 C 859.67 353.03 870.70 342.99 877.32 331.26 C 890.11 337.66 902.96 343.94 915.75 350.34 C 907.01 365.79 894.10 378.92 878.54 387.51 C 862.87 395.98 844.61 398.45 827.01 397.46 C 806.86 396.33 787.06 388.50 771.96 375.05 C 758.43 363.08 748.95 346.74 744.82 329.19 C 741.44 314.44 741.26 298.90 744.57 284.12 C 748.64 266.32 757.91 249.64 771.38 237.25 M 812.08 256.06 C 801.20 261.55 793.51 272.07 790.16 283.65 C 818.04 283.67 845.93 283.69 873.81 283.64 C 871.94 268.41 859.19 256.10 844.55 252.69 C 833.78 250.31 821.98 250.85 812.08 256.06 Z" />
<path fill="#ffffff" opacity="1.00" d=" M 1231.12 214.14 C 1249.29 212.45 1268.13 215.02 1284.54 223.29 C 1301.21 231.40 1315.07 245.11 1323.27 261.75 C 1332.23 279.33 1334.81 299.68 1332.45 319.14 C 1330.25 337.29 1322.66 354.87 1310.43 368.51 C 1296.97 383.55 1278.03 393.34 1258.15 396.42 C 1238.68 399.33 1218.14 397.38 1200.24 388.84 C 1184.53 381.55 1171.08 369.43 1162.46 354.39 C 1150.96 334.84 1147.71 311.19 1151.14 288.96 C 1154.16 269.64 1163.36 251.14 1177.68 237.73 C 1192.16 224.13 1211.38 215.90 1231.12 214.14 M 1230.44 257.68 C 1217.83 260.74 1206.89 269.71 1201.33 281.42 C 1195.90 292.36 1195.07 305.11 1197.08 317.02 C 1199.51 330.81 1208.18 343.60 1220.77 350.00 C 1234.14 357.02 1251.00 356.55 1264.07 349.02 C 1275.78 342.46 1283.67 330.20 1286.05 317.11 C 1288.61 302.54 1286.54 286.55 1277.60 274.42 C 1267.23 259.88 1247.62 253.24 1230.44 257.68 Z" />
<path fill="#ffffff" opacity="1.00" d=" M 1402.87 217.55 C 1421.10 212.50 1440.53 212.65 1459.04 216.10 C 1476.26 219.42 1493.18 228.14 1503.13 242.99 C 1512.87 257.24 1515.44 275.03 1515.11 291.95 C 1515.10 325.30 1515.11 358.66 1515.10 392.02 C 1499.93 392.02 1484.76 392.02 1469.59 392.02 C 1469.57 385.90 1469.59 379.78 1469.58 373.66 C 1468.63 373.66 1467.70 373.67 1466.79 373.68 C 1461.02 380.65 1454.02 386.59 1446.23 391.19 C 1436.82 396.59 1425.67 397.93 1414.99 397.63 C 1397.03 397.08 1378.96 389.65 1366.93 376.10 C 1354.95 362.64 1350.79 343.35 1354.45 325.89 C 1357.53 310.82 1367.83 297.82 1381.03 290.18 C 1395.99 281.36 1413.84 278.91 1430.96 279.79 C 1444.20 280.03 1457.24 283.08 1469.59 287.74 C 1470.12 279.38 1468.74 270.40 1462.87 264.02 C 1451.00 250.37 1430.26 248.12 1413.95 254.07 C 1404.83 257.40 1397.07 263.69 1390.93 271.11 C 1379.75 263.48 1368.58 255.82 1357.41 248.18 C 1368.89 233.57 1384.89 222.46 1402.87 217.55 M 1422.80 314.33 C 1415.80 315.60 1408.99 318.89 1404.43 324.46 C 1398.73 331.08 1397.75 341.33 1402.12 348.88 C 1405.55 354.57 1411.58 358.22 1417.79 360.20 C 1431.96 364.25 1448.03 359.68 1458.34 349.26 C 1465.48 342.03 1469.56 331.95 1469.60 321.81 C 1455.18 314.83 1438.70 311.49 1422.80 314.33 Z" />
<path fill="#ffffff" opacity="1.00" d=" M 1594.01 215.93 C 1613.94 211.86 1635.24 213.06 1654.21 220.67 C 1669.73 226.46 1682.41 238.88 1688.70 254.18 C 1675.42 259.59 1662.14 265.00 1648.85 270.40 C 1646.09 264.82 1641.94 259.82 1636.48 256.73 C 1625.76 250.66 1612.23 248.99 1600.71 253.78 C 1596.56 255.56 1592.16 258.34 1590.96 262.99 C 1589.73 267.31 1591.94 272.01 1595.72 274.27 C 1603.17 278.82 1611.78 280.93 1620.20 282.90 C 1637.20 287.18 1655.24 289.90 1670.04 300.01 C 1683.05 308.52 1691.97 323.32 1692.18 339.02 C 1693.11 356.28 1683.21 372.53 1669.54 382.44 C 1654.48 393.50 1635.44 398.04 1616.96 397.67 C 1598.63 397.67 1580.04 392.70 1565.01 382.01 C 1553.19 373.63 1544.13 361.60 1538.77 348.18 C 1552.53 342.29 1566.29 336.42 1580.05 330.54 C 1583.81 338.93 1589.55 346.77 1597.65 351.41 C 1605.20 355.98 1614.25 357.59 1622.98 356.83 C 1630.37 356.32 1638.28 354.23 1643.36 348.48 C 1646.90 344.58 1646.69 338.36 1643.79 334.17 C 1641.30 330.51 1637.21 328.41 1633.24 326.77 C 1614.29 319.39 1593.07 319.49 1574.79 310.16 C 1562.27 303.95 1551.16 293.42 1547.11 279.73 C 1543.65 266.58 1545.59 251.73 1553.54 240.53 C 1562.79 227.03 1578.37 219.32 1594.01 215.93 Z" />
<path fill="#ffffff" opacity="1.00" d=" M 453.07 219.33 C 470.36 219.33 487.64 219.33 504.93 219.33 C 514.47 255.42 523.97 291.51 533.50 327.60 C 534.10 327.60 535.31 327.61 535.92 327.62 C 547.37 291.53 558.72 255.42 570.16 219.33 C 586.03 219.34 601.91 219.33 617.78 219.33 C 629.31 255.42 640.83 291.50 652.34 327.59 C 652.95 327.60 654.17 327.61 654.78 327.62 C 664.21 291.53 673.58 255.42 683.01 219.33 C 700.06 219.34 717.11 219.33 734.16 219.34 C 715.72 276.89 697.25 334.44 678.81 391.99 C 662.22 392.01 645.63 392.00 629.05 392.00 C 617.53 355.69 606.00 319.39 594.51 283.07 C 593.89 283.06 592.66 283.04 592.05 283.03 C 580.54 319.34 568.98 355.63 557.53 391.96 C 541.16 392.04 524.79 392.00 508.41 391.98 C 489.99 334.42 471.50 276.89 453.07 219.33 Z" />
</g>
</svg>
